<?xml version="1.0" encoding="utf-8"?>
<!-- Generator: Adobe Illustrator 17.0.0, SVG Export Plug-In . SVG Version: 6.00 Build 0)  -->
<!DOCTYPE svg PUBLIC "-//W3C//DTD SVG 1.1//EN" "http://www.w3.org/Graphics/SVG/1.1/DTD/svg11.dtd">
<svg version="1.1" id="Capa_1" xmlns="http://www.w3.org/2000/svg" xmlns:xlink="http://www.w3.org/1999/xlink" x="0px" y="0px"
	 width="100px" height="100px" viewBox="0 0 100 100" enable-background="new 0 0 100 100" xml:space="preserve">
<g>
	<path fill="#131125" d="M49.129,87.422c-11.264-1.868-21.678,1.043-31.991,6.558C14.034,70.717,9.913,48.108,2.889,26.765
		c2.334,0,4.635,0,7.298,0c-0.871-3.934-1.606-7.251-2.386-10.775c2.293,0,4.406,0,6.765,0c-0.626-3.422-1.214-6.64-1.805-9.875
		c5.179-0.42,16.691,5.703,22.7,12.321c-3.07-1.463-6.123-3.036-9.213-4.359c-3.075-1.316-6.187-2.381-9.613-3.681
		c0.933,4.989,1.855,9.127,2.479,13.39c2.387,16.301,4.713,32.628,6.958,48.986c0.263,1.914,0.688,2.363,1.72,2.672
		c4.252,1.274,8.53,2.444,12.708,4.25C43.536,81.008,46.283,83.709,49.129,87.422z M11.711,19.43
		c0.475,1.923,0.858,3.399,1.207,4.897c4.14,17.767,7.042,36.164,9.638,54.704c0.336,2.399,0.982,2.597,2.216,2.543
		c3.467-0.152,6.942-0.159,10.408,0.036c2.03,0.114,4.05,0.724,6.074,1.111c-0.321-0.707-0.701-1.075-1.1-1.147
		c-4.716-0.852-9.428-1.821-14.158-2.372c-1.233-0.143-1.599-0.671-1.885-2.543c-2.822-18.435-5.7-36.847-8.574-55.259
		c-0.183-1.171-0.462-2.3-0.709-3.511C13.744,18.425,12.835,18.875,11.711,19.43z M20.872,86.675
		c-3.366-19.441-6.701-38.707-10.056-58.088c-0.876,0.407-1.39,0.604-1.887,0.887c-0.481,0.274-0.945,0.636-1.481,1.004
		c5.055,19.138,8.845,38.736,11.666,58.906c2.858-1.277,5.513-2.463,8.168-3.65c-0.022-0.225-0.044-0.45-0.067-0.675
		C25.135,85.588,23.055,86.118,20.872,86.675z"/>
	<path fill="#131125" d="M83.218,10.813c-6.517,1.297-12.58,4.681-18.731,7.482c7.089-6.449,14.463-11.39,22.776-12.447
		c-0.635,3.439-1.227,6.65-1.87,10.134c2.316,0,4.425,0,6.762,0c-0.758,3.462-1.484,6.776-2.325,10.619c2.555,0,4.818,0,7.28,0
		c-6.994,21.424-11.187,43.982-14.172,66.784c-5.23-1.799-10.42-3.784-15.655-5.329c-5.289-1.56-10.634-1.749-16.174-1.145
		c1.6-1.605,3.144-3.401,4.81-4.779c4.668-3.861,9.68-5.653,14.821-6.42c2.86-0.426,2.878-0.303,3.384-4.786
		c2.224-19.722,4.963-39.22,8.809-58.24C83.033,12.195,83.088,11.678,83.218,10.813z M85.181,17.932
		c-0.183,0.716-0.395,1.341-0.507,2.014c-0.865,5.217-1.748,10.427-2.557,15.669C80,49.332,77.904,63.057,75.839,76.796
		c-0.264,1.759-0.673,2.418-1.832,2.432c-3.044,0.035-6.103,0.185-9.126,0.749c-2.382,0.445-4.719,1.574-7.075,2.4
		c0.032,0.258,0.064,0.515,0.096,0.773c0.2-0.04,0.403-0.056,0.601-0.122c5.654-1.893,11.359-2.349,17.089-1.473
		c1.212,0.185,1.537-0.56,1.793-2.344c2.821-19.658,5.789-39.246,10.452-57.957c0.135-0.541,0.158-1.163,0.241-1.808
		c-0.286-0.204-0.472-0.374-0.67-0.471C86.696,18.627,85.979,18.304,85.181,17.932z M80.893,89.401
		c2.792-20.352,6.63-39.973,11.666-59.074c-1.153-0.621-2.098-1.13-3.379-1.821c-3.392,19.575-6.743,38.91-10.072,58.123
		c-2.132-0.529-4.125-1.023-6.118-1.517c-0.021,0.237-0.041,0.474-0.062,0.712C75.526,86.99,78.125,88.157,80.893,89.401z"/>
</g>
<g>
	<path fill="#131125" d="M14.693,10.397c0.869-0.796,1.77-1.561,2.592-2.403c0.293-0.3,0.368-0.803,0.595-1.182
		c0.149-0.249,0.351-0.516,0.598-0.645c0.541-0.282,1.227-0.36,1.671-0.737c1.105-0.939,2.091-2.017,3.164-2.997
		c0.315-0.287,0.761-0.43,1.198-0.667c0.126,1.67,1.653,3.338,3.109,3.533c0.216,1.362,2.105,3.181,3.173,3.217
		c0.312,0.581,0.473,1.184,0.86,1.541c0.855,0.788,1.899,1.377,2.725,2.191c0.702,0.692,1.149,1.637,1.819,2.369
		c0.405,0.443,1.019,0.694,1.689,1.129c0.111,1.008,1.888,2.744,3.13,2.837c0.058,1.369,2.225,3.425,3.423,3.248
		c0.089,1.506,1.973,3.409,3.512,3.575c-1.52,1.667-3.756,2.419-5.352,3.887c1.562,1.629,3.087,3.219,4.631,4.83
		c1.105-0.907,2.134-1.729,3.136-2.582c0.893-0.759,1.849-0.919,2.867-0.331c0.841,0.485,1.418,0.241,2.052-0.428
		c1.03-1.087,2.164-2.074,3.319-3.166c-1.067-1.175-2.09-2.301-3.232-3.558C64.157,16.04,72.844,8.111,81.732,0
		c0.532,0.543,1.257,1.291,1.992,2.029c0.442,0.443,0.748,1.165,1.629,0.753c0.087-0.041,0.654,0.578,0.603,0.668
		c-0.451,0.804,0.189,1.135,0.594,1.571c1.326,1.429,2.655,2.856,3.844,4.135c-1.249,1.305-2.38,2.551-3.583,3.722
		c-0.825,0.803-1.771,1.479-2.626,2.253c-1.177,1.065-2.453,2.061-3.439,3.287c-1.065,1.324-2.445,2.244-3.642,3.388
		c-1.372,1.311-2.744,2.622-4.12,3.93c-2.566,2.44-5.153,4.858-7.691,7.327c-0.66,0.642-1.075,0.512-1.627-0.096
		c-1.314-1.448-2.674-2.856-4.126-4.397c-1.295,1.204-2.53,2.353-3.885,3.612c0.399,0.286,0.712,0.524,1.037,0.743
		c2.966,1.992,4.689,4.787,5.333,8.278c0.275,1.492,2.139,3.347,3.317,3.288c0.167,1.369,2.035,3.286,3.31,3.397
		c0.309,1.598,2.573,3.676,3.778,3.467c0.005,1.36,1.828,3.43,3.179,3.61c0.393,1.509,2.532,3.479,3.66,3.372
		c0.026,1.363,2.043,3.448,3.394,3.508c0.016,1.315,2.662,3.896,4.458,3.933c-1.338,1.339-2.475,2.476-3.545,3.546
		c0.051,0.503,0.094,0.924,0.137,1.345c-0.369-0.009-0.74-0.047-1.105-0.015c-0.217,0.019-0.478,0.093-0.627,0.237
		c-1.141,1.1-2.277,2.208-3.374,3.352c-0.268,0.28-0.387,0.702-0.594,1.096c-0.34,0.033-0.708,0.069-1.078,0.104
		c-0.014-1.154-2.272-3.58-3.249-3.543c-0.132-1.454-1.298-2.28-2.262-2.952c-1.651-1.15-2.161-3.536-4.427-4.023
		c-0.181-1.241-1.894-3.029-3.165-3.077c1.387,12.192,2.772,24.361,4.156,36.528c-11.94,0-23.803,0-35.766,0
		c0-6.437,0-12.678,0-19.066c2.463,0,4.947,0,7.53,0c1.249-10.52,2.482-20.909,3.715-31.297c-0.088-0.07-0.176-0.14-0.264-0.21
		c-1.122,1.242-2.103,2.669-3.411,3.666c-1.033,0.788-3.222,3.005-3.108,3.904c-1.434,0.187-3.602,2.272-3.632,3.494
		c-1.394,0.203-3.693,2.574-3.676,3.793c-1.136-0.015-3.532,2.296-3.688,3.558c-1.375,0.333-3.506,2.491-3.582,3.628
		c-1.445,0.29-3.641,2.627-3.71,4.261c-0.512-0.418-0.887-0.719-1.256-1.028c-0.983-0.823-1.452-2.287-3.002-2.412
		c-0.1-0.008-0.257-0.135-0.275-0.227c-0.39-2.077-2.342-2.902-3.483-4.374c-0.243-0.313-0.486-0.626-0.771-0.993
		c1.745-0.394,4.192-2.473,4.338-3.319c0.808-0.525,1.473-0.874,2.04-1.343c1.558-1.29,3.092-2.609,4.594-3.964
		c0.404-0.364,0.578-0.996,0.997-1.327c0.889-0.702,1.902-1.246,2.797-1.941c0.388-0.302,0.608-0.82,0.91-1.236
		c0.09-0.124,0.183-0.259,0.305-0.344c1.094-0.76,2.221-1.477,3.272-2.291c0.226-0.175,0.188-0.693,0.276-1.074
		c1.582-0.007,3.756-1.888,3.708-3.274c1.444,0.089,3.781-1.849,3.935-3.549c0.56,0.412,1.086,0.669,1.434,1.077
		c1.776,2.083,2.319,2.11,4.28,0.341c1.02-0.92,1.704-1.93,2.085-3.289c0.411-1.467,1.179-2.833,1.816-4.299
		c-1.503-1.541-3.078-3.193-4.713-4.782c-0.187-0.182-0.78-0.146-1.064,0.01c-0.893,0.492-1.728,1.089-2.585,1.646
		c-0.881-1.45-1.758-2.685-3.331-3.204c-0.166-0.055-0.264-0.339-0.378-0.526c-0.124-0.203-0.183-0.469-0.35-0.618
		c-1.955-1.745-3.942-3.455-5.882-5.216c-0.567-0.515-0.975-1.203-1.525-1.74c-1.236-1.207-2.392-2.557-3.814-3.495
		c-1.4-0.924-2.128-2.45-3.498-3.331c-0.339-0.218-0.732-0.349-1.202-0.568c-0.175-1.041-2.006-2.895-3.112-2.742
		C14.857,10.581,14.775,10.489,14.693,10.397z M43.695,46.228c0.666,0.914,12.257,1.23,14.88,0.549
		c-2.157-1.087-4.241-0.183-6.2-0.72c0-1.156-0.125-2.295,0.028-3.395c0.254-1.822-0.854-2.715-2.051-3.61
		c-1.032,0.494-1.432,1.209-1.366,2.321c0.093,1.567,0.023,3.143,0.023,4.855C47.218,46.228,45.569,46.228,43.695,46.228z
		 M64.495,32.721c1.104-1.042,2.105-1.988,3.146-2.971c-1.51-1.641-2.903-3.156-4.362-4.741c-1.106,1.053-2.109,2.007-3.174,3.021
		C61.592,29.619,62.975,31.096,64.495,32.721z M67.469,21.071c1.516,1.619,2.927,3.125,4.379,4.676
		c1.071-1.016,2.03-1.925,3.063-2.905c-1.473-1.583-2.876-3.092-4.338-4.664C69.51,19.168,68.546,20.067,67.469,21.071z
		 M77.839,11.315c-1.114,1.054-2.093,1.979-3.101,2.932c1.486,1.612,2.855,3.097,4.31,4.675c1.094-1.045,2.092-1.999,3.138-2.998
		C80.697,14.346,79.31,12.875,77.839,11.315z M63.848,24.489c1.503,1.63,2.9,3.145,4.354,4.722c1.083-1.028,2.059-1.954,3.073-2.917
		c-1.514-1.635-2.895-3.126-4.345-4.692C65.899,22.567,64.934,23.471,63.848,24.489z M74.181,14.764
		c-1.053,1.001-2.024,1.924-3.046,2.896c1.504,1.61,2.888,3.091,4.343,4.649c1.035-0.987,1.989-1.897,3-2.86
		C77.019,17.858,75.646,16.361,74.181,14.764z M78.408,10.785c1.478,1.566,2.889,3.062,4.353,4.614
		c1.025-1.04,1.942-1.972,2.936-2.98c-1.405-1.487-2.798-2.962-4.238-4.486C80.429,8.896,79.464,9.799,78.408,10.785z M89.352,9.149
		c-1.485-1.573-2.87-3.039-4.323-4.577c-1.04,0.975-1.988,1.865-3,2.815c1.487,1.587,2.868,3.061,4.313,4.603
		C87.34,11.047,88.265,10.175,89.352,9.149z M78.639,66.902c-1.256,1.413-2.52,2.836-3.843,4.324
		c0.955,1.02,1.845,1.971,2.695,2.878c1.485-1.504,2.846-2.882,4.054-4.104C80.612,69.006,79.653,67.983,78.639,66.902z
		 M74.247,70.695c1.382-1.562,2.633-2.978,3.733-4.221c-0.983-1.094-1.834-2.041-2.745-3.054c-1.312,1.462-2.551,2.843-3.84,4.279
		C72.37,68.724,73.255,69.654,74.247,70.695z M71.014,66.959c1.173-1.311,2.403-2.686,3.493-3.904
		c-0.952-1.053-1.804-1.996-2.727-3.017c-1.256,1.441-2.445,2.804-3.725,4.273C69.027,65.182,69.95,66.007,71.014,66.959z
		 M14.573,62.614c-1.239,1.08-2.344,2.044-3.441,3.001c1.21,1.234,2.278,2.324,3.412,3.48c1.081-1.029,2.124-2.022,3.246-3.09
		C16.717,64.873,15.695,63.797,14.573,62.614z M26.007,13.197c0.856,0.848,1.568,1.6,2.34,2.284c0.178,0.158,0.65,0.218,0.835,0.095
		c1.336-0.889,2.634-1.837,3.864-2.71c-1.032-1.083-1.964-2.061-2.93-3.076C28.766,10.909,27.455,11.996,26.007,13.197z
		 M68.555,56.714c-1.316,1.607-2.425,2.963-3.523,4.303c0.945,0.939,1.733,1.722,2.612,2.595c1.199-1.381,2.381-2.741,3.41-3.925
		C70.195,58.665,69.424,57.748,68.555,56.714z M26.896,6.478c-1.428,1.209-2.769,2.344-4.029,3.411
		c0.9,0.995,1.675,1.85,2.546,2.812c1.433-1.197,2.784-2.326,4.2-3.51C28.692,8.271,27.852,7.433,26.896,6.478z M41.777,28.771
		c1.616-1.028,3.038-1.932,4.592-2.921c-1.02-0.956-1.92-1.798-2.899-2.715c-1.384,0.927-2.818,1.887-4.25,2.846
		C40.117,26.958,40.922,27.836,41.777,28.771z M38.554,25.518c1.523-1.027,2.927-1.973,4.317-2.911
		c-0.934-0.999-1.8-1.927-2.704-2.895c-1.463,1.031-2.875,2.027-4.217,2.973C36.86,23.675,37.671,24.558,38.554,25.518z
		 M33.763,13.308c-1.545,1.091-2.954,2.086-4.215,2.977c0.87,1.004,1.649,1.904,2.456,2.836c1.537-1.068,2.957-2.055,4.401-3.058
		C35.482,15.1,34.66,14.242,33.763,13.308z M23.661,3.328c-1.369,1.234-2.677,2.413-4.04,3.642c0.947,0.899,1.746,1.657,2.585,2.455
		c1.426-1.198,2.75-2.31,4.142-3.479C25.427,5.049,24.604,4.247,23.661,3.328z M37.014,16.573c-1.519,1.058-2.93,2.041-4.031,2.808
		c0.802,0.981,1.554,1.9,2.308,2.822c1.465-1.034,2.852-2.014,4.304-3.039C38.725,18.292,37.917,17.48,37.014,16.573z
		 M65.052,53.249c-2.258,2.408-2.425,5.522-0.488,7.115c1.118-1.361,2.236-2.722,3.274-3.985
		C66.852,55.271,65.972,54.283,65.052,53.249z M22.042,56.235c-1.087,0.932-2.117,1.815-3.063,2.627
		c1.013,1.091,1.963,2.116,3,3.234c1.042-0.989,2.05-1.946,3.13-2.972C24.031,58.109,23.072,57.205,22.042,56.235z M15.175,62.123
		c1.111,1.167,2.127,2.234,3.226,3.388c0.98-1.043,1.878-1.999,2.725-2.901c-0.931-0.979-1.894-1.992-2.939-3.091
		C17.206,60.367,16.272,61.175,15.175,62.123z M26.022,52.816c-1.139,0.98-2.24,1.927-3.385,2.912
		c1.087,1.018,2.041,1.912,3.061,2.867c1.082-1.03,2.09-1.99,3.187-3.034C27.944,54.658,27.085,53.835,26.022,52.816z
		 M59.733,21.142c-1.137,1.041-2.186,2.002-3.278,3.003c0.966,1.031,1.81,1.932,2.741,2.925c1.097-1.037,2.132-2.016,3.206-3.032
		C61.45,23.005,60.616,22.1,59.733,21.142z M50.86,61.175c-1.052-1.614-0.235-3.263-0.691-4.741c-1.071,0-2.087,0-3.111,0
		c-0.112,1.605-0.217,3.121-0.33,4.741C47.917,61.175,49.325,61.175,50.86,61.175z M29.95,49.444
		c-1.184,1.014-2.24,1.917-3.355,2.872c1.029,0.971,1.921,1.813,2.877,2.714c1.08-1.017,2.063-1.942,2.959-2.785
		C31.558,51.26,30.769,50.369,29.95,49.444z M66.017,20.635c-0.889-0.968-1.719-1.872-2.612-2.845
		c-1.061,0.967-2.057,1.875-3.112,2.837c0.94,1.008,1.778,1.905,2.688,2.881C64.024,22.522,64.978,21.618,66.017,20.635z
		 M82.639,68.795c0.933-0.798,1.775-1.518,2.509-2.146c-1.156-1.161-2.22-2.229-3.325-3.339c-0.673,0.769-1.402,1.603-2.208,2.525
		C80.684,66.882,81.685,67.862,82.639,68.795z M65.972,51.95c0.997,1.119,1.898,2.13,2.865,3.214
		c0.796-0.967,1.551-1.884,2.301-2.796c-1.028-1.051-1.977-2.021-3.031-3.099C67.329,50.246,66.587,51.178,65.972,51.95z
		 M63.976,17.285c0.916,0.975,1.735,1.847,2.634,2.804c1.048-0.996,2.023-1.923,3.047-2.896c-0.912-0.976-1.724-1.843-2.576-2.754
		C66.003,15.426,65.057,16.293,63.976,17.285z M33.178,51.562c1.116-1.064,2.123-2.022,3.188-3.037
		c-0.977-0.83-1.824-1.549-2.699-2.292c-1.085,0.932-2.087,1.793-3.196,2.746C31.397,49.862,32.232,50.659,33.178,51.562z
		 M67.649,13.929c0.925,0.971,1.742,1.828,2.615,2.745c1.049-1.003,2-1.911,3.021-2.887c-0.859-0.933-1.637-1.777-2.488-2.701
		C69.747,12.035,68.768,12.919,67.649,13.929z M73.875,13.264c1.057-1,2.034-1.926,3.077-2.914
		c-0.878-0.924-1.669-1.756-2.505-2.636c-1.061,0.979-2.05,1.891-3.083,2.844C72.241,11.502,73.023,12.345,73.875,13.264z
		 M77.939,59.25c-1.019-1.045-1.924-1.972-2.882-2.955c-0.81,0.923-1.566,1.784-2.183,2.487c0.975,1.029,1.869,1.973,2.825,2.982
		C76.436,60.937,77.174,60.109,77.939,59.25z M75.045,7.194c0.862,0.922,1.636,1.752,2.468,2.642
		c1.055-0.997,2.007-1.896,3.052-2.882c-0.841-0.89-1.618-1.712-2.442-2.582C77.082,5.327,76.141,6.189,75.045,7.194z
		 M67.477,48.821c-0.945-1.012-1.789-1.914-2.721-2.912c-0.828,1.024-1.598,1.976-2.309,2.855c0.959,1.027,1.808,1.935,2.729,2.921
		C65.997,50.664,66.748,49.729,67.477,48.821z M17.724,72.334c1.003-1.016,2.013-2.039,3.084-3.124
		c-0.673-0.718-1.341-1.432-2.111-2.253c-1.127,1.063-2.191,2.067-3.308,3.12C16.237,70.896,16.966,71.601,17.724,72.334z
		 M81.743,1.068c-1.068,0.982-2.029,1.865-3.034,2.79c0.878,0.926,1.637,1.726,2.444,2.576c1.034-0.99,1.982-1.898,2.973-2.846
		C83.32,2.736,82.585,1.959,81.743,1.068z M74.459,55.786c-0.917-0.968-1.787-1.887-2.747-2.901
		c-0.813,0.992-1.558,1.901-2.184,2.664c0.947,1.029,1.773,1.927,2.646,2.876C72.986,57.487,73.741,56.615,74.459,55.786z
		 M40.073,45.057c-0.918-0.763-1.705-1.418-2.56-2.128c-1.09,0.943-2.109,1.825-3.242,2.805c0.954,0.819,1.786,1.533,2.659,2.282
		C38.006,47.002,38.969,46.096,40.073,45.057z M81.317,62.707c-1.002-0.972-1.932-1.875-2.912-2.826
		c-0.718,0.818-1.468,1.673-1.923,2.191c0.906,1.17,1.688,2.181,2.521,3.258C79.902,64.31,80.636,63.478,81.317,62.707z
		 M19.283,66.421c0.73,0.784,1.394,1.498,1.976,2.123c1.058-0.996,2.065-1.944,3.15-2.966c-0.708-0.669-1.384-1.307-2.114-1.997
		C21.262,64.554,20.31,65.453,19.283,66.421z M24.897,64.923c1.043-1.006,2.049-1.976,3.125-3.013
		c-0.629-0.603-1.251-1.199-1.95-1.868c-1.063,0.995-2.084,1.95-3.016,2.823C23.728,63.616,24.328,64.287,24.897,64.923z
		 M24.217,13.587c-0.846-0.943-1.639-1.827-2.449-2.73c-0.38,0.287-0.651,0.474-0.901,0.685c-0.503,0.425-0.995,0.862-1.704,1.479
		c0.351,0.243,0.65,0.4,0.887,0.624C22.148,15.619,22.145,15.623,24.217,13.587z M29.899,56.432
		c-1.138,1.074-2.171,2.05-3.266,3.083c0.744,0.696,1.363,1.274,1.925,1.801c1.099-1.055,2.106-2.022,3.097-2.974
		C31.085,57.721,30.56,57.15,29.899,56.432z M18.68,7.804c-0.887,0.809-1.642,1.498-2.462,2.247
		c0.871,0.818,1.646,1.545,2.484,2.332c0.849-0.725,1.616-1.379,2.334-1.991C20.226,9.501,19.507,8.712,18.68,7.804z M25.01,14.013
		c-0.859,0.728-1.592,1.351-2.389,2.027c0.772,0.73,1.403,1.386,2.105,1.953c0.209,0.169,0.701,0.227,0.922,0.097
		c0.666-0.392,1.262-0.902,1.959-1.42C26.736,15.779,25.938,14.962,25.01,14.013z M28.482,21.544
		c0.831-0.584,1.568-1.101,2.233-1.568c-0.839-0.953-1.624-1.843-2.447-2.779c-0.881,0.632-1.635,1.174-2.503,1.796
		C26.719,19.889,27.557,20.675,28.482,21.544z M32.044,57.448c1.133-0.98,2.155-1.864,2.899-2.508
		c-0.475-0.666-0.905-1.269-1.387-1.944c-1.078,1.009-2.069,1.936-3.07,2.872C31.121,56.512,31.668,57.066,32.044,57.448z
		 M33.862,23.207c-0.865-1.008-1.615-1.882-2.396-2.792c-0.818,0.579-1.549,1.097-2.392,1.694c0.967,0.893,1.835,1.694,2.728,2.518
		C32.592,24.082,33.295,23.598,33.862,23.207z M32.43,25.152c2.638,2.895,3.156,2.991,4.669,1.149
		c-0.781-0.93-1.548-1.845-2.338-2.786C33.9,24.12,33.198,24.613,32.43,25.152z M35.893,54.325c0.568-0.648,0.973-1.179,1.449-1.636
		c0.568-0.545,1.197-1.026,1.899-1.618c-0.748-0.659-1.266-1.116-1.874-1.652c-0.832,0.771-1.621,1.494-2.4,2.229
		c-0.264,0.249-0.501,0.526-0.648,0.681C34.832,52.98,35.289,53.559,35.893,54.325z M35.899,28.366
		c2.97,2.977,2.168,2.947,4.616,1.059C37.665,26.288,38.287,26.424,35.899,28.366z M42.732,47.279
		c-0.62-0.526-1.084-0.919-1.637-1.388c-1.066,1.005-2.075,1.957-3.153,2.974c0.619,0.553,1.129,1.008,1.561,1.394
		C40.592,49.254,41.59,48.333,42.732,47.279z M59.988,46.248c-0.033,0.135-0.065,0.271-0.098,0.406
		c0.857,0.254,1.714,0.508,2.649,0.786c0.508-0.636,1.07-1.338,1.553-1.942c-0.582-0.642-1.088-1.199-1.742-1.92
		c-0.052,1.001-0.093,1.803-0.138,2.67C61.438,46.248,60.713,46.248,59.988,46.248z M43.481,46.817c0-1.216,0-2.108,0-2.795
		c-0.547,0.411-1.158,0.871-1.821,1.37C42.288,45.884,42.74,46.237,43.481,46.817z M64.165,52.992
		c-0.539-0.672-0.965-1.202-1.6-1.993c0.16,1.269,0.278,2.203,0.431,3.407C63.564,53.719,63.925,53.282,64.165,52.992z"/>
</g>
</svg>
